<?xml version="1.0" encoding="UTF-8"?>
<svg width="229px" height="135px" viewBox="0 0 229 135" version="1.1" xmlns="http://www.w3.org/2000/svg" xmlns:xlink="http://www.w3.org/1999/xlink">
    <!-- Generator: Sketch 47 (45396) - http://www.bohemiancoding.com/sketch -->
    <title>Fill 1</title>
    <desc>Created with Sketch.</desc>
    <defs></defs>
    <g id="Page-1" stroke="none" stroke-width="1" fill="none" fill-rule="evenodd">
        <g id="HP" transform="translate(-560.000000, -982.000000)" fill="#FFE800">
            <path d="M558.174308,1066.18664 C582.751898,1059.97281 606.872465,1054.09955 630.520823,1046.56602 C630.478309,1046.26955 630.435795,1045.97459 630.391763,1045.67659 C628.770161,1045.79366 627.140968,1045.86208 625.52544,1046.03236 C608.351341,1047.84619 591.18028,1049.67826 574.012255,1051.49968 C573.212082,1051.58482 572.41191,1051.69125 571.613256,1051.69429 C568.152928,1051.70494 567.565325,1051.1728 566.623946,1047.88116 C565.304496,1043.25918 563.871171,1038.67064 562.504652,1034.06234 C562.279936,1033.30823 562.149357,1032.52675 561.873017,1031.31348 C568.251621,1029.16365 574.820019,1028.0857 581.177366,1026.26883 C587.613667,1024.43068 594.104629,1022.79474 600.524228,1020.90642 C606.870946,1019.03938 613.34217,1017.52203 619.502131,1015.07117 C619.445951,1014.81118 619.392809,1014.55424 619.33663,1014.29577 C615.118643,1014.68803 610.903694,1015.1107 606.679634,1015.46191 C603.217787,1015.75078 599.749868,1016.01533 596.28043,1016.16889 C594.169918,1016.26163 592.810991,1015.32659 592.334228,1013.05817 C591.257716,1007.95271 590.006592,1002.88525 588.86479,997.793469 C588.755469,997.303904 588.920969,996.753523 588.990814,995.794158 C590.237382,995.556977 591.48395,995.208808 592.748739,995.10086 C614.222815,993.252068 635.690817,991.356143 657.174003,989.636583 C673.453791,988.33513 689.7518,987.258695 706.043735,986.109281 C707.641043,985.995252 709.264163,986.167056 710.861471,986.02718 C713.265025,985.817366 714.768195,986.819303 715.269251,989.136375 C716.341209,994.109567 717.353951,999.096442 718.343918,1004.08788 C718.817644,1006.46729 717.217299,1007.48747 715.377055,1008.20813 C709.640714,1010.44919 703.890709,1012.65223 698.145259,1014.86744 C696.289831,1015.58202 694.431366,1016.29052 692.015665,1017.21644 C693.758735,1018.35217 695.182951,1018.01312 696.468996,1017.9371 C705.157016,1017.41257 713.840481,1016.85914 722.520909,1016.23426 C731.199818,1015.60786 739.869618,1014.87504 748.547009,1014.21519 C752.503838,1013.91415 753.095996,1014.13309 754.032821,1017.78506 C755.197398,1022.32038 755.993015,1026.95149 756.911619,1031.55066 C757.332203,1033.66552 756.340718,1034.70243 754.293977,1035.27105 C742.43108,1038.56878 730.592477,1041.9562 718.749318,1045.32842 C715.553184,1046.23914 712.373751,1047.20306 708.717555,1048.28102 C710.342194,1049.70106 711.827144,1049.36506 713.143556,1049.33769 C723.050814,1049.14156 732.953517,1048.73562 742.860774,1048.65351 C754.637125,1048.55469 766.414995,1048.62159 778.189827,1048.80251 C783.359822,1048.88157 783.494955,1049.07314 784.647386,1054.0585 C785.582691,1058.10121 786.276579,1062.20778 786.873292,1066.31435 C787.269582,1069.04345 786.830778,1069.73371 784.194916,1070.35098 C780.684482,1071.17351 777.116351,1071.81664 773.542147,1072.29708 C752.312526,1075.15085 731.038873,1077.6747 709.848729,1080.79605 C671.050238,1086.51272 632.374733,1092.99717 593.905724,1100.67666 C584.590625,1102.53609 575.213272,1104.08841 565.857177,1105.73651 C562.316376,1106.35835 561.759141,1106.04667 560.757027,1102.96332 C559.149091,1098.01142 557.603407,1093.03366 556.069869,1088.05439 C555.924107,1087.57699 556.051649,1087.01444 556.051649,1086.14782 C557.322511,1085.79509 558.572116,1085.42108 559.833868,1085.10484 C562.834135,1084.35376 563.540169,1083.59965 562.788584,1080.62273 C561.839613,1076.86737 560.471577,1073.21844 559.281187,1069.52541 C559.003329,1068.66487 558.711805,1067.80889 558.174308,1066.18664" id="Fill-1" transform="translate(671.500000, 1046.000000) rotate(-6.000000) translate(-671.500000, -1046.000000) "></path>
        </g>
    </g>
</svg>