<?xml version="1.0" encoding="utf-8"?>
<!-- Generator: Adobe Illustrator 23.1.1, SVG Export Plug-In . SVG Version: 6.00 Build 0)  -->
<svg version="1.1" id="Calque_1" xmlns="http://www.w3.org/2000/svg" xmlns:xlink="http://www.w3.org/1999/xlink" x="0px" y="0px"
	 viewBox="0 0 142.97 137.98" style="enable-background:new 0 0 142.97 137.98;" xml:space="preserve">
<style type="text/css">
	.st0{fill-rule:evenodd;clip-rule:evenodd;fill:#FEFEFE;}
	.st1{filter:url(#Adobe_OpacityMaskFilter);}
	.st2{fill-rule:evenodd;clip-rule:evenodd;fill:#FFFFFF;}
	.st3{mask:url(#mask-2_1_);fill-rule:evenodd;clip-rule:evenodd;fill:#FBE911;}
	.st4{fill-rule:evenodd;clip-rule:evenodd;fill:#FBE911;}
	.st5{fill-rule:evenodd;clip-rule:evenodd;fill:#020303;}
</style>
<title>Page 1</title>
<desc>Created with Sketch.</desc>
<g>
	<g id="HP" transform="translate(-214.000000, -68.000000)">
		<g id="Page-1" transform="translate(214.000000, 68.000000)">
			<path id="Fill-1" class="st0" d="M133.8,70.24c0,36.86-29.88,66.74-66.74,66.74c-36.86,0-66.74-29.88-66.74-66.74
				S30.2,3.5,67.06,3.5C103.92,3.5,133.8,33.38,133.8,70.24"/>
			<g id="Group-5" transform="translate(34.000000, 0.000000)">
				<g id="Clip-4">
				</g>
				<defs>
					<filter id="Adobe_OpacityMaskFilter" filterUnits="userSpaceOnUse" x="22.39" y="0.53" width="85.46" height="86.54">
						<feColorMatrix  type="matrix" values="1 0 0 0 0  0 1 0 0 0  0 0 1 0 0  0 0 0 1 0"/>
					</filter>
				</defs>
				<mask maskUnits="userSpaceOnUse" x="22.39" y="0.53" width="85.46" height="86.54" id="mask-2_1_">
					<g class="st1">
						<polygon id="path-1_1_" class="st2" points="22.39,0.53 107.86,0.53 107.86,87.06 22.39,87.06 						"/>
					</g>
				</mask>
				<path id="Fill-3" class="st3" d="M107.86,43.8c0,23.9-19.13,43.27-42.73,43.27S22.39,67.69,22.39,43.8S41.53,0.53,65.13,0.53
					S107.86,19.9,107.86,43.8"/>
			</g>
			<polygon id="Fill-6" class="st4" points="66.23,74.36 70.48,85.5 78.63,85.89 82.71,84.1 78.63,77.44 73.61,74.36 			"/>
			<path id="Fill-8" class="st5" d="M31.1,89.19H16.78v-0.77c2.39-0.71,2.45-3.21,2.45-6.49V60.35h-4.02l-0.06-0.83h4.08
				c0-14.9,5.4-18.11,13.25-18.11c3.2,0,5.84,1.8,6.78,3.53c0.75,1.28,0.82,3.28,0.06,4.69c-1.07,1.86-3.58,2.57-5.46,1.48
				c-1.88-1.16-2.51-3.6-1.44-5.59c0.5-0.96,1.38-1.54,2.39-1.73c1.07-0.26,0.5-1.54-1.76-1.54c-3.83,0-4.52,5.01-4.52,17.28h6.72
				l-0.13,0.83h-6.6v21.58c0,3.53,0.31,5.85,2.58,6.49V89.19z"/>
			<path id="Fill-10" class="st5" d="M56.35,87.54H42.26v-0.77c2.35-0.71,2.47-3.4,2.47-6.73v-32.8c0-2.24-0.68-3.2-3.21-4.16v-0.77
				l12.3-2.56v40.29c0,3.52,0.31,6.09,2.53,6.73V87.54z"/>
			<path id="Fill-12" class="st5" d="M77.78,71.35c0-7.79-1.67-12.67-4.76-12.67c-3.28,0-5.26,6.74-5.26,12.67H77.78z M67.77,72.15
				c0.25,7.72,3.28,10.51,7.42,11.43c3.22,0.74,7.79-0.8,9.15-4.88l0.8,0.31c-0.87,3.89-4.95,8.53-12.99,8.53
				c-8.1,0-14.16-6.92-14.16-14.71c0-9.64,6.99-14.95,15.03-14.95c7.79,0,12.99,3.65,12.99,14.27H67.77z"/>
			<path id="Fill-14" class="st5" d="M110.18,65.56c-1.14-0.94-1.78-2.2-1.78-3.46c0-0.76-2.28-0.25-4.76,3.59v12.84
				c0,3.46,0.32,5.98,2.6,6.61v0.76H91.71v-0.76c2.47-0.76,2.54-3.4,2.54-6.61V63.86c0-2.2-0.7-3.09-3.3-4.22v-0.82l12.69-2.58v8
				c3.93-5.98,6.15-6.86,7.87-7.62c1.71-0.76,4.12-0.38,5.65,0.94c2.22,1.89,2.41,5.29,0.51,7.43
				C115.7,67.19,112.4,67.51,110.18,65.56"/>
			<path id="Fill-16" class="st5" d="M22.35,94.13c1.09,0,1.88,0.31,2.61,0.85c0.1,0.07,0.1,0.18,0.01,0.26l-0.48,0.41
				c-0.08,0.08-0.17,0.08-0.27,0c-0.51-0.38-1.2-0.61-1.87-0.61c-1.54,0-2.71,1.1-2.71,2.38c0,1.28,1.18,2.37,2.72,2.37
				c0.79,0,1.34-0.27,1.86-0.6c0.1-0.06,0.19-0.05,0.26-0.01l0.5,0.41c0.09,0.06,0.06,0.18-0.01,0.25c-0.74,0.6-1.66,0.89-2.63,0.89
				c-2.16,0-3.9-1.46-3.9-3.29C18.45,95.61,20.19,94.13,22.35,94.13"/>
			<path id="Fill-18" class="st5" d="M34.92,94.31c0-0.09,0.08-0.18,0.17-0.18h0.61c0.1,0,0.17,0.08,0.17,0.18v3.83
				c0,0.93,0.58,1.65,1.51,1.65c0.94,0,1.53-0.71,1.53-1.63v-3.85c0-0.09,0.07-0.18,0.17-0.18h0.61c0.09,0,0.17,0.08,0.17,0.18v3.9
				c0,1.41-1.05,2.52-2.48,2.52c-1.43,0-2.46-1.1-2.46-2.52V94.31z"/>
			<path id="Fill-20" class="st5" d="M51.4,94.31c0-0.09,0.1-0.18,0.24-0.18h0.83c0.13,0,0.24,0.08,0.24,0.18v5.54h3.4
				c0.14,0,0.24,0.08,0.24,0.18v0.52c0,0.09-0.1,0.18-0.24,0.18h-4.47c-0.14,0-0.24-0.08-0.24-0.18V94.31z"/>
			<path id="Fill-22" class="st5" d="M66.51,95.02h-1.72c-0.12,0-0.2-0.08-0.2-0.18v-0.53c0-0.09,0.08-0.18,0.2-0.18h4.54
				c0.12,0,0.2,0.08,0.2,0.18v0.53c0,0.09-0.08,0.18-0.2,0.18h-1.72v5.53c0,0.09-0.1,0.18-0.2,0.18h-0.7c-0.11,0-0.2-0.08-0.2-0.18
				V95.02z"/>
			<path id="Fill-24" class="st5" d="M76.12,94.31c0-0.09,0.08-0.18,0.17-0.18h0.61c0.1,0,0.17,0.08,0.17,0.18v3.83
				c0,0.93,0.58,1.65,1.51,1.65c0.94,0,1.53-0.71,1.53-1.63v-3.85c0-0.09,0.07-0.18,0.17-0.18h0.61c0.09,0,0.17,0.08,0.17,0.18v3.9
				c0,1.41-1.05,2.52-2.48,2.52c-1.43,0-2.46-1.1-2.46-2.52V94.31z"/>
			<path id="Fill-26" class="st5" d="M98.64,97.33c0.63,0,1.19-0.52,1.19-1.17c0-0.61-0.55-1.12-1.19-1.12h-1.73v2.29H98.64z
				 M95.9,94.31c0-0.09,0.08-0.18,0.18-0.18h2.64c1.17,0,2.12,0.89,2.12,2.02c0,0.87-0.59,1.58-1.44,1.91l1.33,2.39
				c0.07,0.12,0,0.27-0.17,0.27h-0.76c-0.08,0-0.14-0.05-0.16-0.09l-1.29-2.5H96.9v2.4c0,0.09-0.09,0.18-0.18,0.18h-0.63
				c-0.11,0-0.18-0.09-0.18-0.18V94.31z"/>
			<path id="Fill-28" class="st5" d="M110.73,94.31c0-0.09,0.09-0.18,0.21-0.18h4.51c0.12,0,0.21,0.08,0.21,0.18v0.53
				c0,0.09-0.09,0.18-0.21,0.18h-3.57v1.92h3.01c0.11,0,0.21,0.08,0.21,0.18v0.53c0,0.1-0.1,0.18-0.21,0.18h-3.01v2.02h3.57
				c0.12,0,0.21,0.08,0.21,0.18v0.52c0,0.09-0.09,0.18-0.21,0.18h-4.51c-0.12,0-0.21-0.08-0.21-0.18V94.31z"/>
		</g>
	</g>
</g>
</svg>
