<?xml version="1.0" encoding="UTF-8"?>
<svg width="40px" height="39px" viewBox="0 0 40 39" version="1.1" xmlns="http://www.w3.org/2000/svg" xmlns:xlink="http://www.w3.org/1999/xlink">
    <!-- Generator: Sketch 47 (45396) - http://www.bohemiancoding.com/sketch -->
    <title>Group 3 Copy</title>
    <desc>Created with Sketch.</desc>
    <defs></defs>
    <g id="Page-1" stroke="none" stroke-width="1" fill="none" fill-rule="evenodd">
        <g id="HP" transform="translate(-1264.000000, -633.000000)">
            <g id="Group-3-Copy" transform="translate(1286.500000, 650.500000) scale(-1, 1) translate(-1286.500000, -650.500000) translate(1265.000000, 630.000000)">
                <ellipse id="Oval-8" stroke="#FFEC00" stroke-width="2" fill="#FFE800" cx="27.2884615" cy="25.01" rx="15.7115385" ry="15.99"></ellipse>
                <ellipse id="Oval-8-Copy" stroke="#000000" stroke-width="2" cx="21.5" cy="20.09" rx="15.7115385" ry="15.99"></ellipse>
                <g id="suivant">
                    <g id="Page-1-Copy" transform="translate(21.046667, 21.885135) scale(-1, 1) rotate(90.000000) translate(-21.046667, -21.885135) translate(14.760000, 18.283784)" stroke="#FFEC00" fill="#FFE800">
                        <path d="M0.201546594,5.98935456 C-0.0671821981,6.26710673 -0.0671821981,6.71663641 0.201546594,6.99438858 C0.470514045,7.27214074 0.906064707,7.27214074 1.17503216,6.99438858 L6.28708432,1.7161116 L11.3979432,6.99438858 C11.6669106,7.27214074 12.1024613,7.27214074 12.3714288,6.99438858 C12.5057931,6.85588217 12.5733333,6.67375365 12.5733333,6.49187157 C12.5733333,6.30998949 12.5060318,6.12786097 12.3714288,5.98935456 L6.77394643,0.208314125 C6.50497898,-0.0694380417 6.06942832,-0.0694380417 5.80046087,0.208314125 L0.201546594,5.98935456 Z" id="Fill-4"></path>
                    </g>
                    <g id="Page-1" transform="translate(21.046667, 19.668919) scale(-1, 1) rotate(90.000000) translate(-21.046667, -19.668919) translate(14.760000, 16.067568)" fill="#000000">
                        <path d="M0.201546594,5.98935456 C-0.0671821981,6.26710673 -0.0671821981,6.71663641 0.201546594,6.99438858 C0.470514045,7.27214074 0.906064707,7.27214074 1.17503216,6.99438858 L6.28708432,1.7161116 L11.3979432,6.99438858 C11.6669106,7.27214074 12.1024613,7.27214074 12.3714288,6.99438858 C12.5057931,6.85588217 12.5733333,6.67375365 12.5733333,6.49187157 C12.5733333,6.30998949 12.5060318,6.12786097 12.3714288,5.98935456 L6.77394643,0.208314125 C6.50497898,-0.0694380417 6.06942832,-0.0694380417 5.80046087,0.208314125 L0.201546594,5.98935456 Z" id="Fill-4"></path>
                    </g>
                </g>
            </g>
        </g>
    </g>
</svg>